# xmcd
#
# Track frame offsets:
#	150
#	19322
#	38842
#	57360
#	78590
#	100440
#	127985
#	152222
#	169595
#	184070
#	205732
#	224492
#	250767
#	260092
#	282987
#
# Disc length: 3976
#
# Revision: 1
# Processed by: cddbd v1.5.1PL0 Copyright (c) Steve Scherf et al.
# Submitted via: CDex 1.50beta9
# Normalized: r0:DSETVAR2,TDELIM( - )
#
DISCID=db0f860f
DTITLE=Various Artist - Velvet Jazz 2 (Disk 2)
DYEAR=2002
DGENRE=Jazz
TTITLE0=Peter White - Bueno funk
TTITLE1=Euge Groove - Belle maria
TTITLE2=Take 6 - Takin to the streets
TTITLE3=Brian Culbertson - Nice and slow
TTITLE4=Bob James - Raise the roof
TTITLE5=Chico Hamilton - Mysterious maiden
TTITLE6=Kenny Garrett - Song for difang
TTITLE7=Rick Braun - Car wash 2000
TTITLE8=Dee Dee Bridgewater - Night moves
TTITLE9=Brian Culbertson - Without your love
TTITLE10=Leon Ware - Why I came to California
TTITLE11=Gerald Albright - Bermuda nights
TTITLE12=Bill Whithers - Ain't no sunshine
TTITLE13=Pieces of a Dream - Pieces of a dream
TTITLE14=George Benson - Moody's mood
EXTD=YEAR: 2002
EXTT0=
EXTT1=
EXTT2=
EXTT3=
EXTT4=
EXTT5=
EXTT6=
EXTT7=
EXTT8=
EXTT9=
EXTT10=
EXTT11=
EXTT12=
EXTT13=
EXTT14=
PLAYORDER=
